<?xml version="1.0" encoding="utf-8"?>
<!-- Generator: Adobe Illustrator 22.1.0, SVG Export Plug-In . SVG Version: 6.00 Build 0)  -->
<svg version="1.1" id="Layer_1" xmlns="http://www.w3.org/2000/svg" xmlns:xlink="http://www.w3.org/1999/xlink" x="0px" y="0px"
	 viewBox="0 0 170.4 53.2" style="enable-background:new 0 0 170.4 53.2;" xml:space="preserve">
<style type="text/css">
	.st0{fill:#964B00;}
	.st1{fill:#FFFFFF;}
	.st2{fill:#341C02;}
	.st3{fill:#F97C0B;}
	.st4{fill:none;stroke:#FFFFFF;stroke-width:8;stroke-miterlimit:10;}
	.st5{fill:none;stroke:#964B00;stroke-miterlimit:10;}
</style>
<g>
	<path class="st2" d="M87.4,35.9c-0.5,0-1.1-0.1-1.6-0.2c-0.6-0.1-1.1-0.3-1.6-0.5H64.3l-1.1-1.7L79.7,7.9h-4.7
		c-1.9,0-3.3,0.5-4.1,1.5c-0.8,1-1.4,2.6-1.7,4.8h-4.3c0-2,0.1-3.9,0.4-5.6c0.3-1.8,0.6-3.1,1.1-4.1h21.5l1.1,1.6L72.9,31.7h6.6
		c1,0,1.9-0.4,2.6-1.1c0.7-0.7,1.4-1.6,1.9-2.7c0.5-1.1,0.9-2.2,1.2-3.2h4.2c0,0.4,0,0.9-0.1,1.7c-0.1,0.8-0.2,1.6-0.3,2.6
		c-0.1,1-0.3,1.9-0.4,2.8c-0.2,0.9-0.3,1.8-0.5,2.5C87.7,35,87.6,35.6,87.4,35.9z"/>
	<path class="st2" d="M91.6,35.2c-0.3-0.3-0.6-0.7-0.7-1.1s-0.3-0.8-0.3-1.3c0.8,0,1.5-0.2,1.9-0.5c0.4-0.4,0.6-1,0.6-1.9V17.7
		c0-0.8-0.2-1.3-0.5-1.7c-0.4-0.4-1.1-0.6-2.3-0.6v-1.9c0.4-0.3,1.1-0.6,2-0.9c0.9-0.3,1.9-0.6,3-0.9c1.1-0.2,2-0.4,2.9-0.4
		c0.7,0,1.2,0.2,1.4,0.5c0.3,0.3,0.4,0.8,0.4,1.6v17.1c0,0.9,0.2,1.5,0.7,1.8c0.4,0.4,1.1,0.5,1.9,0.5c0,0.5-0.1,0.9-0.3,1.3
		s-0.4,0.7-0.7,1.1H91.6z M96.5,8.3c-1.3,0-2.3-0.4-3-1.1c-0.7-0.7-1.1-1.7-1.1-3c0-1.2,0.4-2.2,1.2-3C94.3,0.4,95.4,0,96.6,0
		c1.3,0,2.3,0.4,3.1,1.1c0.7,0.8,1.1,1.8,1.1,3c0,1.3-0.4,2.3-1.2,3S97.8,8.3,96.5,8.3z"/>
	<path class="st2" d="M114.7,35.6c-3.3,0-5.9-1-7.8-3.1c-1.9-2.1-2.9-5-2.9-8.7c0-2.5,0.5-4.8,1.4-6.6c1-1.9,2.3-3.3,3.9-4.3
		c1.7-1,3.5-1.5,5.6-1.5c2.6,0,4.8,0.8,6.3,2.3c1.6,1.5,2.4,3.7,2.4,6.5c0,1.1-0.2,2.1-0.5,2.9c-0.4,0.8-1.1,1.3-2.3,1.3h-9.5
		c0.1,2.3,0.6,4,1.6,4.9s2.3,1.4,3.8,1.4c1,0,1.9-0.2,2.8-0.5c0.8-0.3,1.6-0.7,2.4-1.3c0.3,0.2,0.5,0.6,0.6,1.1
		c0.2,0.5,0.2,0.9,0.2,1.2c0,0.5-0.3,1-1,1.7c-0.7,0.7-1.6,1.3-2.8,1.8C117.8,35.3,116.4,35.6,114.7,35.6z M111.4,21h4.4
		c0.5,0,0.8-0.2,0.9-0.6c0.1-0.4,0.2-0.8,0.2-1.4c0-1.9-0.2-3.1-0.7-3.7c-0.5-0.6-1-0.9-1.6-0.9c-0.5,0-1,0.2-1.5,0.6
		c-0.5,0.4-0.9,1-1.2,2C111.6,17.9,111.4,19.3,111.4,21z"/>
	<path class="st2" d="M146.3,15.2c0.6,0,1.1-0.2,1.3-0.6c0.3-0.4,0.4-0.9,0.4-1.4c0-0.4-0.1-0.8-0.2-1.2c-0.2-0.4-0.4-0.6-0.7-0.6
		c-0.5,0.1-1.1,0.2-1.6,0.2c-0.6,0.1-1.4,0.1-2.4,0.2s-2.6,0.1-4.6,0.1c-0.5-0.1-1-0.2-1.5-0.2c-0.5,0-0.9,0-1.2,0h0
		c-2.1,0-3.9,0.4-5.4,1.1c-1.4,0.7-2.5,1.7-3.3,2.9c-0.7,1.2-1.1,2.6-1.1,4.1c0,1.5,0.4,2.9,1.2,4.2c0.8,1.3,1.8,2.3,3.2,3
		c-0.8,0.3-1.4,0.7-1.8,1.3c-0.4,0.6-0.6,1.1-0.6,1.5c0,0.7,0.1,1.3,0.2,1.9c0.1,0.4,0.3,0.8,0.7,1.1l0,0c1.6,1.5,3.4,1.7,3.5,1.7
		c0,0,0,0,0,0c0.6,0.1,1.2,0.3,2,0.4c1.2,0.2,2.3,0.4,3.3,0.7c1,0.2,1.8,0.5,2.4,0.9c0.6,0.4,0.9,0.9,0.9,1.5h6.4
		c0.1-0.3,0.1-0.7,0.1-1.1c0-2.2-0.9-3.8-2.8-4.9c-1.9-1.1-4.7-1.8-8.4-2c-1.4-0.1-2.4-0.3-3-0.6c-0.6-0.3-0.9-0.8-0.9-1.5v-0.1
		c0.9,0.2,1.8,0.3,2.8,0.3c3.3,0,5.9-0.7,7.8-2.2c1.9-1.4,2.8-3.5,2.8-6.3c0-0.9-0.3-1.9-0.8-2.9c-0.5-1-1.3-1.9-2.3-2.7
		c0.7,0.2,1.3,0.5,2,0.8C145.5,15,146,15.2,146.3,15.2z M138,23.5c-0.4,1-1.1,1.5-2,1.5c-0.9,0-1.6-0.4-2-1.3
		c-0.4-0.8-0.6-2.1-0.6-3.7c0-1.8,0.2-3.1,0.6-4.1s1-1.5,2-1.5c0.8,0,1.5,0.4,2,1.1s0.7,1.9,0.7,3.5C138.6,21,138.4,22.5,138,23.5z"
		/>
	<path class="st2" d="M159.3,35.7c-2.1,0-3.9-0.4-5.5-1.3c-1.6-0.9-2.9-2.2-3.8-4c-0.9-1.7-1.3-3.9-1.3-6.5c0-2.8,0.5-5.1,1.4-6.9
		c0.9-1.9,2.2-3.3,3.9-4.3c1.7-1,3.6-1.4,5.8-1.4c2.1,0,4,0.5,5.6,1.4s2.8,2.2,3.7,4c0.9,1.8,1.3,4,1.3,6.6c0,2.7-0.5,5-1.4,6.9
		c-0.9,1.9-2.2,3.3-3.9,4.2C163.4,35.3,161.5,35.7,159.3,35.7z M159.7,32.6c0.6,0,1.1-0.2,1.6-0.7c0.5-0.4,0.8-1.3,1.1-2.4
		c0.2-1.2,0.4-2.9,0.4-5.2c0-2.8-0.1-4.8-0.4-6.3c-0.3-1.4-0.6-2.4-1.1-2.9s-1.1-0.7-1.8-0.7c-0.6,0-1.2,0.2-1.6,0.7
		c-0.5,0.4-0.8,1.3-1.1,2.5c-0.2,1.2-0.4,2.9-0.4,5.2c0,2.7,0.1,4.8,0.4,6.2s0.7,2.4,1.2,2.9C158.4,32.3,159,32.6,159.7,32.6z"/>
	<g>
		<path class="st0" d="M62.4,48.8V40h5.4v0.9h-4.3V44h3.7v0.9h-3.7v4H62.4z"/>
		<path class="st0" d="M70.8,49c-0.5,0-0.9-0.1-1.3-0.3c-0.4-0.2-0.6-0.5-0.8-0.9s-0.3-0.9-0.3-1.5v-3.8h1.1v3.7
			c0,0.6,0.1,1.1,0.4,1.4c0.3,0.3,0.7,0.5,1.2,0.5c0.4,0,0.7-0.1,1-0.3c0.3-0.2,0.5-0.4,0.7-0.7c0.2-0.3,0.2-0.7,0.2-1.2v-3.4h1.1
			v6.3h-1l-0.1-1.1c-0.2,0.4-0.5,0.7-0.9,0.9S71.3,49,70.8,49z"/>
		<path class="st0" d="M75.1,48.8v-6.3h1l0.1,1.2c0.1-0.3,0.3-0.5,0.5-0.7s0.5-0.4,0.8-0.5c0.3-0.1,0.7-0.2,1.1-0.2v1.1h-0.4
			c-0.3,0-0.5,0-0.8,0.1s-0.5,0.2-0.6,0.3c-0.2,0.2-0.3,0.4-0.4,0.6c-0.1,0.3-0.2,0.6-0.2,1v3.3H75.1z"/>
		<path class="st0" d="M79.1,48.8v-6.3h1l0.1,1.1c0.2-0.4,0.5-0.7,0.9-0.9c0.4-0.2,0.8-0.3,1.3-0.3c0.5,0,0.9,0.1,1.3,0.3
			c0.4,0.2,0.6,0.5,0.8,0.9c0.2,0.4,0.3,0.9,0.3,1.5v3.8h-1.1v-3.7c0-0.6-0.1-1.1-0.4-1.4c-0.3-0.3-0.7-0.5-1.2-0.5
			c-0.4,0-0.7,0.1-0.9,0.3c-0.3,0.2-0.5,0.4-0.7,0.7c-0.2,0.3-0.2,0.7-0.2,1.2v3.4H79.1z"/>
		<path class="st0" d="M86.3,41.1c-0.2,0-0.4-0.1-0.5-0.2c-0.1-0.1-0.2-0.3-0.2-0.5c0-0.2,0.1-0.4,0.2-0.5c0.1-0.1,0.3-0.2,0.5-0.2
			c0.2,0,0.4,0.1,0.5,0.2c0.1,0.1,0.2,0.3,0.2,0.5c0,0.2-0.1,0.4-0.2,0.5C86.7,41,86.5,41.1,86.3,41.1z M85.8,48.8v-6.3h1.1v6.3
			H85.8z"/>
		<path class="st0" d="M90.6,48.8c-0.4,0-0.7-0.1-1-0.2c-0.3-0.1-0.5-0.3-0.6-0.6s-0.2-0.7-0.2-1.1v-3.5h-1.1v-0.9h1.1l0.1-1.5h0.9
			v1.5h1.8v0.9h-1.8v3.5c0,0.4,0.1,0.7,0.2,0.8s0.4,0.2,0.8,0.2h0.7v0.9H90.6z"/>
		<path class="st0" d="M94.7,49c-0.5,0-0.9-0.1-1.3-0.3c-0.4-0.2-0.6-0.5-0.8-0.9s-0.3-0.9-0.3-1.5v-3.8h1.1v3.7
			c0,0.6,0.1,1.1,0.4,1.4c0.3,0.3,0.7,0.5,1.2,0.5c0.4,0,0.7-0.1,1-0.3c0.3-0.2,0.5-0.4,0.7-0.7c0.2-0.3,0.2-0.7,0.2-1.2v-3.4h1.1
			v6.3h-1l-0.1-1.1c-0.2,0.4-0.5,0.7-0.9,0.9S95.2,49,94.7,49z"/>
		<path class="st0" d="M99,48.8v-6.3h1l0.1,1.2c0.1-0.3,0.3-0.5,0.5-0.7s0.5-0.4,0.8-0.5c0.3-0.1,0.7-0.2,1.1-0.2v1.1H102
			c-0.3,0-0.5,0-0.8,0.1s-0.5,0.2-0.6,0.3c-0.2,0.2-0.3,0.4-0.4,0.6c-0.1,0.3-0.2,0.6-0.2,1v3.3H99z"/>
		<path class="st0" d="M105.5,49c-0.6,0-1.1-0.1-1.6-0.4c-0.5-0.3-0.8-0.7-1.1-1.2s-0.4-1.1-0.4-1.7c0-0.7,0.1-1.3,0.4-1.8
			s0.6-0.9,1.1-1.2s1-0.4,1.6-0.4c0.6,0,1.1,0.1,1.6,0.4c0.4,0.3,0.8,0.6,1,1.1c0.2,0.4,0.3,0.9,0.3,1.5c0,0.1,0,0.2,0,0.3
			c0,0.1,0,0.2,0,0.3h-5.2V45h4.2c0-0.6-0.2-1-0.6-1.4c-0.4-0.3-0.8-0.5-1.3-0.5c-0.4,0-0.7,0.1-1,0.2c-0.3,0.2-0.6,0.4-0.7,0.7
			s-0.3,0.7-0.3,1.2v0.4c0,0.5,0.1,1,0.3,1.3c0.2,0.4,0.4,0.6,0.7,0.8c0.3,0.2,0.6,0.3,1,0.3c0.4,0,0.8-0.1,1.1-0.3s0.5-0.5,0.6-0.8
			h1c-0.1,0.4-0.3,0.7-0.5,1c-0.3,0.3-0.6,0.5-0.9,0.7C106.5,48.9,106,49,105.5,49z"/>
		<path class="st0" d="M114.6,49c-0.6,0-1.1-0.1-1.6-0.3c-0.4-0.2-0.8-0.5-1-0.9c-0.2-0.4-0.4-0.9-0.4-1.4c0-0.4,0.1-0.8,0.3-1.2
			c0.2-0.4,0.4-0.7,0.8-0.9c0.3-0.3,0.8-0.5,1.3-0.7l0.4-0.1l0.6,0.7l-0.5,0.2c-0.6,0.2-1,0.5-1.3,0.8s-0.4,0.7-0.4,1.2
			c0,0.3,0.1,0.7,0.2,0.9c0.2,0.3,0.4,0.5,0.7,0.7s0.6,0.2,1,0.2c0.5,0,0.9-0.1,1.3-0.3s0.8-0.6,1.2-1.1c0.2-0.2,0.4-0.5,0.5-0.8
			c0.2-0.3,0.4-0.6,0.6-1l0.4-0.7h1.1l-0.6,1c-0.2,0.4-0.5,0.8-0.7,1.1c-0.2,0.3-0.4,0.7-0.7,0.9c-0.5,0.6-1,1-1.5,1.3
			C115.9,48.8,115.3,49,114.6,49z M118.7,48.8l-4.8-4.9c-0.4-0.4-0.7-0.7-0.8-1.1c-0.2-0.3-0.3-0.7-0.3-1.1c0-0.4,0.1-0.7,0.3-1
			s0.4-0.5,0.8-0.7s0.7-0.3,1.2-0.3c0.5,0,0.9,0.1,1.2,0.3c0.3,0.2,0.6,0.4,0.8,0.7c0.2,0.3,0.3,0.7,0.3,1h-1c0-0.4-0.1-0.7-0.4-0.9
			s-0.5-0.3-0.8-0.3c-0.4,0-0.7,0.1-0.9,0.3c-0.2,0.2-0.3,0.5-0.3,0.8c0,0.3,0.1,0.5,0.2,0.8c0.2,0.3,0.4,0.5,0.7,0.9l5.3,5.4H118.7
			z"/>
		<path class="st0" d="M123.4,48.8V40h1.1v8.8H123.4z"/>
		<path class="st0" d="M125.6,48.8v-6.3h1l0.1,1.1c0.2-0.4,0.5-0.7,0.9-0.9c0.4-0.2,0.8-0.3,1.3-0.3c0.5,0,0.9,0.1,1.3,0.3
			c0.4,0.2,0.6,0.5,0.8,0.9c0.2,0.4,0.3,0.9,0.3,1.5v3.8h-1.1v-3.7c0-0.6-0.1-1.1-0.4-1.4c-0.3-0.3-0.7-0.5-1.2-0.5
			c-0.4,0-0.7,0.1-0.9,0.3c-0.3,0.2-0.5,0.4-0.7,0.7c-0.2,0.3-0.2,0.7-0.2,1.2v3.4H125.6z"/>
		<path class="st0" d="M134.7,48.8c-0.4,0-0.7-0.1-1-0.2c-0.3-0.1-0.5-0.3-0.6-0.6s-0.2-0.7-0.2-1.1v-3.5h-1.1v-0.9h1.1l0.1-1.5h0.9
			v1.5h1.8v0.9H134v3.5c0,0.4,0.1,0.7,0.2,0.8s0.4,0.2,0.8,0.2h0.7v0.9H134.7z"/>
		<path class="st0" d="M139.2,49c-0.6,0-1.1-0.1-1.6-0.4c-0.5-0.3-0.8-0.7-1.1-1.2s-0.4-1.1-0.4-1.7c0-0.7,0.1-1.3,0.4-1.8
			s0.6-0.9,1.1-1.2s1-0.4,1.6-0.4c0.6,0,1.1,0.1,1.6,0.4c0.4,0.3,0.8,0.6,1,1.1c0.2,0.4,0.3,0.9,0.3,1.5c0,0.1,0,0.2,0,0.3
			c0,0.1,0,0.2,0,0.3h-5.2V45h4.2c0-0.6-0.2-1-0.6-1.4c-0.4-0.3-0.8-0.5-1.3-0.5c-0.4,0-0.7,0.1-1,0.2c-0.3,0.2-0.6,0.4-0.7,0.7
			s-0.3,0.7-0.3,1.2v0.4c0,0.5,0.1,1,0.3,1.3c0.2,0.4,0.4,0.6,0.7,0.8c0.3,0.2,0.6,0.3,1,0.3c0.4,0,0.8-0.1,1.1-0.3s0.5-0.5,0.6-0.8
			h1c-0.1,0.4-0.3,0.7-0.5,1c-0.3,0.3-0.6,0.5-0.9,0.7C140.1,48.9,139.7,49,139.2,49z"/>
		<path class="st0" d="M142.9,48.8v-6.3h1l0.1,1.2c0.1-0.3,0.3-0.5,0.5-0.7s0.5-0.4,0.8-0.5c0.3-0.1,0.7-0.2,1.1-0.2v1.1H146
			c-0.3,0-0.5,0-0.8,0.1s-0.5,0.2-0.6,0.3c-0.2,0.2-0.3,0.4-0.4,0.6c-0.1,0.3-0.2,0.6-0.2,1v3.3H142.9z"/>
		<path class="st0" d="M147.6,41.1c-0.2,0-0.4-0.1-0.5-0.2c-0.1-0.1-0.2-0.3-0.2-0.5c0-0.2,0.1-0.4,0.2-0.5c0.1-0.1,0.3-0.2,0.5-0.2
			c0.2,0,0.4,0.1,0.5,0.2c0.1,0.1,0.2,0.3,0.2,0.5c0,0.2-0.1,0.4-0.2,0.5C147.9,41,147.8,41.1,147.6,41.1z M147,48.8v-6.3h1.1v6.3
			H147z"/>
		<path class="st0" d="M152.1,49c-0.6,0-1.1-0.1-1.6-0.4c-0.5-0.3-0.8-0.7-1.1-1.2s-0.4-1.1-0.4-1.7c0-0.7,0.1-1.3,0.4-1.8
			c0.3-0.5,0.6-0.9,1.1-1.2c0.5-0.3,1-0.4,1.6-0.4c0.6,0,1.1,0.1,1.6,0.4c0.5,0.3,0.8,0.7,1.1,1.2c0.3,0.5,0.4,1.1,0.4,1.8
			c0,0.7-0.1,1.3-0.4,1.8c-0.3,0.5-0.7,0.9-1.1,1.2C153.3,48.8,152.8,49,152.1,49z M152.2,48c0.4,0,0.7-0.1,1-0.3
			c0.3-0.2,0.6-0.5,0.8-0.8c0.2-0.4,0.3-0.8,0.3-1.3c0-0.5-0.1-1-0.3-1.3c-0.2-0.4-0.4-0.6-0.7-0.8s-0.6-0.3-1-0.3
			c-0.4,0-0.7,0.1-1,0.3c-0.3,0.2-0.6,0.4-0.8,0.8c-0.2,0.4-0.3,0.8-0.3,1.3c0,0.5,0.1,1,0.3,1.3c0.2,0.4,0.4,0.6,0.7,0.8
			C151.5,48,151.8,48,152.2,48z"/>
		<path class="st0" d="M156.1,48.8v-6.3h1l0.1,1.2c0.1-0.3,0.3-0.5,0.5-0.7s0.5-0.4,0.8-0.5c0.3-0.1,0.7-0.2,1.1-0.2v1.1h-0.4
			c-0.3,0-0.5,0-0.8,0.1s-0.5,0.2-0.6,0.3c-0.2,0.2-0.3,0.4-0.4,0.6c-0.1,0.3-0.2,0.6-0.2,1v3.3H156.1z"/>
		<path class="st0" d="M162.6,49c-0.5,0-1-0.1-1.4-0.3s-0.7-0.4-0.9-0.7s-0.4-0.7-0.4-1.1h1.1c0,0.2,0.1,0.4,0.3,0.6
			c0.1,0.2,0.3,0.3,0.5,0.4c0.2,0.1,0.5,0.2,0.8,0.2c0.3,0,0.5,0,0.7-0.1s0.3-0.2,0.4-0.4c0.1-0.2,0.1-0.3,0.1-0.5
			c0-0.3-0.1-0.5-0.2-0.6c-0.1-0.1-0.3-0.2-0.5-0.3c-0.2-0.1-0.5-0.1-0.9-0.2c-0.3-0.1-0.5-0.1-0.8-0.2s-0.5-0.2-0.7-0.3
			s-0.4-0.3-0.5-0.5c-0.1-0.2-0.2-0.4-0.2-0.7c0-0.4,0.1-0.7,0.3-1c0.2-0.3,0.5-0.5,0.8-0.7c0.3-0.2,0.8-0.2,1.2-0.2
			c0.7,0,1.2,0.2,1.6,0.5c0.4,0.3,0.7,0.8,0.7,1.4h-1c0-0.3-0.2-0.6-0.4-0.7c-0.2-0.2-0.5-0.3-1-0.3c-0.4,0-0.7,0.1-0.9,0.2
			c-0.2,0.2-0.3,0.4-0.3,0.6c0,0.2,0.1,0.3,0.2,0.4s0.3,0.2,0.5,0.3c0.2,0.1,0.5,0.2,0.8,0.2c0.4,0.1,0.8,0.2,1.1,0.3
			c0.3,0.1,0.6,0.3,0.8,0.6c0.2,0.2,0.3,0.6,0.3,1.1c0,0.4-0.1,0.7-0.3,1c-0.2,0.3-0.5,0.5-0.8,0.7C163.5,48.9,163.1,49,162.6,49z"
			/>
	</g>
	<g>
		<polygon class="st0" points="0,4.1 0,6.8 0,9.4 0,18.3 4.1,9.4 29.2,9.4 10.4,53.2 11.1,52.1 41,4.1 		"/>
		<polygon class="st2" points="35.2,27.1 53.1,27.1 53.1,21.7 37.7,21.7 46.9,0.5 46.2,1.6 16.3,49.6 50.4,49.6 50.4,46.9 
			50.4,46.9 50.4,38.1 46.6,44.2 27,44.2 		"/>
	</g>
</g>
</svg>
